<svg width="60" height="60" viewBox="0 0 60 60" fill="none" xmlns="http://www.w3.org/2000/svg">
<g id="fi_556130">
<path id="Vector" d="M54.7266 18.2554H37.6418L32.073 12.689C28.8938 9.50738 23.8535 9.23317 20.3449 12.0304L7.68984 22.1554C7.275 22.4906 7.03125 22.9945 7.03125 23.5289V44.6226C7.03125 45.3351 7.46016 45.9773 8.11992 46.248L8.73047 46.4988C14.3273 48.7523 20.2629 49.8961 26.3672 49.8961H33.3984C36.3059 49.8961 38.6719 47.53 38.6719 44.6226C38.6719 43.9382 38.5418 43.282 38.3016 42.6797C40.5398 42.0703 42.1875 40.0183 42.1875 37.5914C42.1875 36.907 42.0574 36.2507 41.8172 35.6484C42.8121 35.3777 43.6898 34.8222 44.3566 34.0757C45.1945 33.1418 45.7031 31.9089 45.7031 30.5601C45.7031 29.9437 45.5965 29.3519 45.4008 28.8023H54.7266C57.634 28.8023 60 26.4363 60 23.5289C60 20.6214 57.634 18.2554 54.7266 18.2554Z" fill="#FEC478"/>
<path id="Vector_2" d="M41.8172 35.6483C42.0574 36.2507 42.1875 36.9069 42.1875 37.5913C42.1875 40.0183 40.5398 42.0702 38.3016 42.6796C38.5418 43.2819 38.6719 43.9382 38.6719 44.6226C38.6719 47.53 36.3059 49.896 33.3984 49.896H26.3672C20.2629 49.896 14.3273 48.7522 8.73047 46.4987L8.11992 46.2479C7.46016 45.9772 7.03125 45.3351 7.03125 44.6226V34.0757H44.3566C43.6898 34.8223 42.8121 35.3776 41.8172 35.6483Z" fill="#FEB756"/>
<path id="Vector_3" d="M5.27344 49.896H1.75781C0.786211 49.896 0 49.1098 0 48.1382V20.0132C0 19.0416 0.786211 18.2554 1.75781 18.2554H5.27344C8.18133 18.2554 10.5469 20.6209 10.5469 23.5288V44.6226C10.5469 47.5306 8.18133 49.896 5.27344 49.896Z" fill="#E63DE6"/>
<path id="Vector_4" d="M0 34.0757V48.1382C0 49.1098 0.786211 49.896 1.75781 49.896H5.27344C8.18133 49.896 10.5469 47.5304 10.5469 44.6226V34.0757H0Z" fill="#7C2E9B"/>
</g>
</svg>
